<?xml version="1.0" encoding="utf-8"?>
<!DOCTYPE svg PUBLIC "-//W3C//DTD SVG 1.0//EN" "http://www.w3.org/TR/2001/REC-SVG-20010904/DTD/svg10.dtd">
<svg version="1.0" xmlns="http://www.w3.org/2000/svg" width="2944" height="1539" viewBox="0 0 2944 1539" preserveAspectRatio="xMidYMid meet">
 <g fill="#ffffff">
  <path d="M1631.54 669.09 c0.63 -2.30 0.21 -4.18 -0.84 -4.18 -1.05 0 -1.88 0.42 -1.88 0.84 0 0.42 -0.63 2.30 -1.25 4.18 -0.63 1.88 -0.42 3.35 0.84 3.35 1.05 0 2.51 -1.88 3.14 -4.18z m-678.50 -11.08 c0.42 -4.18 -0.21 -7.74 -1.25 -7.74 -1.25 0 -2.51 3.76 -2.93 8.36 -0.42 5.23 0 8.15 1.46 7.74 1.05 -0.42 2.30 -4.18 2.72 -8.36z m1402.58 -436.79 c-0.84 -3.76 -3.14 -8.78 -5.44 -10.87 -3.35 -3.35 -4.60 -3.55 -7.11 -1.25 -4.81 3.97 -4.18 7.32 3.14 13.38 8.57 7.32 11.08 6.90 9.41 -1.25z m41.40 -24.67 c3.76 -8.57 4.18 -14.22 5.02 -69.42 l0.84 -60.22 -9.62 0 -9.62 0 0 73.60 0 73.39 4.39 -3.97 c2.51 -2.09 6.48 -8.15 8.99 -13.38z m-2276.16 -301.30 l0.42 -302.35 9.62 -1.46 c5.44 -0.63 40.77 -1.25 78.41 -1.25 l68.79 0 0 189.23 0 189.23 25.51 -19.45 c14.22 -10.66 31.99 -24.25 39.73 -30.53 l14.22 -11.08 0.42 -157.03 0.63 -157.24 8.36 -1.46 c4.60 -0.84 136.95 -1.46 294.40 -1.46 l285.83 -0.21 0 -40.77 0 -40.77 -288.34 0 c-158.49 0 -291.26 -0.63 -294.82 -1.25 l-6.48 -1.25 0 -58.34 0 -58.34 294.40 -0.42 294.19 -0.63 0.63 -41.19 0.42 -41.40 -454.77 0 -454.77 0 0.42 40.35 0.63 40.15 119.18 1.05 119.18 1.05 0 59.59 0 59.59 -119.18 1.05 -119.18 1.05 -0.63 341.86 c-0.21 187.97 0 343.12 0.63 344.58 0.63 2.09 10.25 2.51 41.19 2.09 l40.35 -0.63 0.63 -302.35z m265.34 287.08 c19.45 -15.47 81.13 -63.35 104.34 -81.13 6.06 -4.39 36.80 -28.65 68.58 -53.53 53.53 -42.24 58.55 -45.58 66.28 -45.58 7.74 0 12.75 3.55 73.60 51.65 35.96 28.44 92 72.55 124.62 98.27 l59.17 46.84 31.78 -0.63 31.57 -0.63 0.63 -21.95 0.63 -21.95 -109.35 -86.15 c-60.22 -47.46 -123.36 -97.44 -140.72 -111.03 l-31.36 -24.67 -0.63 -119.81 -0.42 -119.81 -37.43 0.84 c-27.60 0.42 -38.05 1.46 -40.56 3.55 -3.14 2.51 -3.55 13.59 -3.55 119.18 l0 116.25 -44.33 34.50 c-54.99 42.86 -78.62 61.26 -106.43 82.59 -67.75 52.69 -115.21 89.49 -130.68 101.41 -9.62 7.53 -27.39 21.33 -39.73 30.95 l-22.37 17.15 62.94 0 62.94 0 20.49 -16.31z m880.27 -654.25 c-0.21 -122.95 -0.42 -22.37 -0.42 223.10 0 245.47 0.21 346.05 0.42 223.31 0.42 -122.95 0.42 -323.67 0 -446.41z m660.94 664.91 c-2.09 -0.42 -5.44 -0.42 -7.32 0 -2.09 0.63 -0.42 1.05 3.55 1.05 3.97 0 5.65 -0.42 3.76 -1.05z m-328.27 -63.35 l-0.63 -62.73 -7.74 0 -7.74 0 -0.63 62.73 -0.63 62.73 8.99 0 9.20 0 -0.84 -62.73z m86.56 0 l-0.63 -62.73 -8.15 0 -8.36 0 0 59.38 c0 32.62 -0.63 60.85 -1.25 62.73 -1.05 2.72 0.42 3.35 8.78 3.35 l10.25 0 -0.63 -62.73z m224.35 59.80 c-3.35 -1.46 -7.95 -4.81 -10.04 -7.11 -8.36 -9.20 -9.62 -18.40 -9.83 -67.75 l0 -47.67 -8.57 0 -8.36 0 0.63 46.63 0.63 46.84 6.27 10.04 c4.60 7.53 9.41 11.92 17.56 16.10 6.06 3.14 12.75 5.85 14.64 5.85 1.88 -0.21 0.63 -1.46 -2.93 -2.93z m271.19 0.42 c-1.88 -1.88 -2.51 -18.61 -2.51 -62.73 l0 -60.22 -8.36 0 -8.15 0 -0.63 62.73 -0.63 62.73 11.50 0 c8.78 0 10.66 -0.63 8.78 -2.51z m427.17 -60.22 l0 -62.73 -8.78 0 -8.78 0 -0.63 62.73 -0.63 62.73 9.41 0 9.41 0 0 -62.73z m284.99 -0.42 c-0.42 -58.55 -0.63 -59.80 -1.05 -16.73 l-0.63 46.42 -6.90 0 c-6.06 0 -8.15 -1.88 -21.12 -19.24 -7.95 -10.66 -24.05 -31.36 -35.55 -46 -18.61 -23.63 -21.95 -26.76 -27.39 -26.76 l-6.27 0 0.63 11.50 0.84 11.50 7.95 0 c8.78 0 7.53 -1.25 78.41 91.37 4.60 5.85 8.99 10.87 10.04 10.87 0.84 0.21 1.25 -28.23 1.05 -62.94z m-917.49 -59.38 c0 -1.67 -0.84 -2.93 -2.09 -2.93 -1.05 0 -2.09 1.88 -2.09 4.39 0 2.30 1.05 3.55 2.09 2.93 1.25 -0.63 2.09 -2.72 2.09 -4.39z m-1028.73 -240.25 l0 -136.95 -39.73 0 -39.73 0 0 106.22 0 106.43 39.31 30.53 c21.54 16.73 39.31 30.53 39.73 30.53 0.21 0.21 0.42 -61.47 0.42 -136.75z m751.26 63.56 c79.45 -29.06 138.21 -69.21 175.01 -119.81 26.97 -37.22 51.44 -105.80 55.83 -157.03 l1.25 -15.68 8.57 0 8.78 0 2.72 25.72 c8.36 80.92 29.69 147.41 64.19 199.05 11.50 17.56 36.59 43.28 56.87 58.55 l17.77 13.38 7.11 -11.92 c8.99 -15.47 23.21 -28.23 41.40 -37.01 8.15 -3.97 13.17 -7.32 11.50 -7.32 -5.85 0 -49.35 -22.58 -68.16 -35.34 -38.26 -25.93 -65.24 -53.95 -87.40 -90.75 -10.66 -18.19 -12.13 -21.54 -11.29 -29.69 0.63 -8.36 0.21 -9.20 -4.39 -9.83 -4.18 -0.63 -5.85 -2.93 -10.04 -15.26 -15.47 -45.79 -23.63 -93.46 -23.63 -138.21 l0 -30.95 6.69 -6.90 6.48 -6.90 -7.74 -3.14 c-6.48 -2.72 -63.56 -13.59 -71.30 -13.59 -1.46 0 -2.09 10.66 -1.46 31.99 1.05 40.98 -2.93 128.17 -6.90 155.15 -12.96 83.64 -49.76 149.92 -109.56 197.38 -23.63 18.61 -39.10 29.06 -66.49 44.12 -12.34 6.90 -21.75 12.55 -20.91 12.55 0.84 0 12.13 -3.76 25.09 -8.57z m1196.63 -8.78 c1.67 -1.67 -29.06 -29.06 -47.88 -42.65 l-17.98 -12.96 -12.96 14.01 c-7.11 7.74 -16.31 18.40 -20.28 24.05 l-7.53 9.83 -76.95 0 -76.95 0 0 -98.27 0 -98.27 104.34 0 c59.38 0 104.96 -0.84 105.59 -1.88 2.72 -4.18 -54.57 -50.18 -58.96 -47.46 -1.05 0.63 -8.99 9.41 -17.35 19.45 -8.57 10.25 -16.31 19.03 -17.56 19.86 -2.51 1.88 -92.84 2.09 -106.43 0.42 l-9.62 -1.46 0 -44.54 c0 -38.26 0.42 -45.37 3.76 -51.44 1.88 -3.76 4.60 -7.53 5.65 -8.36 1.25 -0.84 24.88 -1.67 52.69 -1.67 36.59 0 51.02 -0.63 52.06 -2.51 1.88 -2.93 -7.32 -11.29 -31.36 -29.27 -13.17 -9.62 -17.15 -11.71 -19.03 -9.62 -1.25 1.46 -8.36 9.62 -15.68 17.98 l-13.17 15.05 -103.08 0 c-101.83 0 -102.87 0 -101.83 4.18 1.05 3.97 2.93 4.18 42.45 4.18 22.58 0 45.58 0.63 51.02 1.25 l9.62 1.46 0 51.65 0 51.85 -18.19 1.67 c-10.25 0.84 -49.14 0.84 -86.77 0.21 -37.85 -0.63 -68.58 -0.42 -68.58 0.63 0 8.57 -1.46 8.36 88.03 8.36 l85.52 0 0 98.27 0 98.27 -115 0 c-63.15 0 -115 0.63 -115 1.25 0 0.63 1.05 2.93 2.30 5.23 2.09 4.18 3.55 4.18 278.09 3.35 151.80 -0.63 276.63 -1.46 277.05 -2.09z m-199.05 -46.84 c8.15 -6.48 29.48 -26.14 47.25 -43.49 17.77 -17.35 36.80 -34.29 42.45 -37.43 5.44 -3.14 9.83 -6.69 9.83 -7.74 0 -4.81 -65.65 -33.25 -69 -29.90 -1.05 1.05 -6.06 16.31 -11.50 34.08 -10.04 33.25 -24.46 72.55 -32.20 87.82 -2.51 4.60 -3.76 8.57 -3.14 8.57 0.84 0 8.15 -5.44 16.31 -11.92z m-185.46 -3.14 c8.57 -8.36 14.01 -22.37 12.55 -31.78 -4.39 -26.97 -36.38 -60.22 -78.62 -81.55 l-11.29 -5.85 4.60 6.48 c6.69 9.20 16.73 34.71 20.28 50.39 1.46 7.53 2.93 20.91 2.93 29.69 0 8.78 1.05 18.61 2.30 21.95 2.93 7.74 11.92 17.15 19.65 20.49 7.74 3.35 17.56 0 27.60 -9.83z m-882.78 -41.61 c35.34 -36.59 56.66 -66.49 82.59 -115.42 29.69 -56.45 55.41 -136.75 68.79 -213.69 l5.65 -33.45 177.73 -0.42 c97.65 -0.42 178.77 -1.05 180.45 -1.67 2.30 -0.84 2.09 -2.09 -1.05 -5.65 -6.48 -7.11 -39.31 -34.08 -53.53 -43.70 l-12.96 -8.78 -8.36 9.41 c-4.81 5.23 -14.22 16.10 -21.12 24.25 l-12.55 14.85 -121.69 0 -121.90 0.21 0 -7.74 c0 -14.01 8.36 -72.76 10.25 -73.39 4.39 -1.46 15.68 -10.04 16.31 -12.34 1.25 -3.35 -19.65 -9.62 -55.83 -16.73 -23.63 -4.60 -29.90 -5.23 -31.15 -3.14 -0.84 1.67 -2.30 16.52 -2.93 33.45 -0.63 16.94 -2.30 41.82 -3.76 55.41 l-2.51 24.46 -72.76 0 c-42.86 0 -72.97 0.84 -72.97 1.88 0 8.57 -0.84 8.57 72.35 8.57 l69.84 0 0 12.34 c0 6.90 -1.88 25.09 -4.18 40.35 -19.65 133.82 -58.75 244.64 -116.88 330.99 l-19.65 29.06 14.43 -12.75 c7.95 -6.90 24.88 -23.42 37.43 -36.38z m158.91 -87.40 c12.96 -7.53 17.98 -12.96 24.67 -26.35 10.66 -21.12 12.96 -34.50 12.96 -76.32 0 -44.75 -2.51 -54.99 -8.15 -34.29 -12.34 44.12 -31.99 73.39 -58.34 86.77 -8.78 4.60 -16.10 14.85 -16.10 22.58 0 9.41 8.15 22.79 17.35 28.44 11.29 6.69 14.85 6.48 27.60 -0.84z m231.46 -48.51 c12.96 -8.15 33.04 -21.75 44.54 -29.90 23.21 -16.52 49.14 -30.53 56.04 -30.53 7.53 0 11.08 -3.35 7.95 -7.11 -3.14 -3.76 -35.75 -24.88 -54.99 -35.55 l-14.01 -7.74 -22.79 45.58 c-12.55 25.09 -28.02 53.95 -34.71 64.19 -6.48 10.25 -10.45 17.98 -8.78 17.35 1.88 -0.84 13.80 -8.15 26.76 -16.31z m370.72 -85.31 c47.88 -28.65 96.18 -68.16 147.41 -120.65 29.48 -30.32 69.63 -76.11 78.62 -89.49 2.72 -4.39 5.23 -5.44 11.50 -5.44 7.74 0 8.15 -0.21 8.15 -6.69 0.21 -5.85 1.46 -7.53 8.78 -11.08 4.81 -2.30 8.99 -5.23 9.41 -6.48 1.25 -3.97 -19.45 -11.50 -65.86 -23.63 l-23 -6.06 -8.78 17.98 c-13.17 27.60 -38.68 71.93 -56.66 98.69 -41.82 62.10 -111.45 139.88 -161.84 180.86 -6.06 5.02 25.30 -11.92 52.27 -28.02z m465.23 3.55 c6.27 -21.75 23 -42.24 41.40 -51.65 l11.71 -5.85 -11.50 -2.72 c-40.15 -9.41 -82.17 -24.25 -114.58 -40.77 -35.34 -17.77 -84.89 -54.57 -122.32 -90.75 l-22.79 -22.16 9.41 17.77 c5.02 9.83 17.15 29.48 26.55 43.91 39.10 58.75 81.96 103.29 127.75 132.77 15.47 9.83 47.88 28.23 50.39 28.23 0.63 0 2.51 -3.97 3.97 -8.78z"/>
 </g>
 <g fill="#cf1116">
  <path d="M207 1446.07 l0 -74.44 6.27 0 6.27 0 -0.42 73.81 -0.63 73.60 -5.65 0.63 -5.85 0.63 0 -74.23z"/>
  <path d="M2641.24 1446.49 l0.63 -73.81 4.81 -0.63 4.60 -0.63 0 74.23 0 74.44 -5.23 0 -5.23 0 0.42 -73.60z"/>
  <path d="M32.41 971.85 c-0.63 -1.46 -0.84 -159.33 -0.63 -350.85 l0.63 -348.14 119.18 -1.05 119.18 -1.05 0 -53.32 0 -53.32 -119.18 -1.05 -119.18 -1.05 -0.63 -46.42 -0.42 -46.63 461.05 0 461.05 0 -0.42 47.46 -0.63 47.67 -294.19 0.63 -294.40 0.42 0 52.06 0 52.06 6.48 1.25 c3.55 0.63 136.33 1.25 294.82 1.25 l288.34 0 0 47.05 0 47.05 -285.83 0.21 c-157.45 0 -289.80 0.63 -294.40 1.46 l-8.36 1.46 -0.63 157.24 -0.42 157.03 -14.22 11.08 c-7.74 6.27 -28.02 21.95 -45.37 34.92 l-31.36 23.63 -0.63 -193.41 -0.42 -193.62 -62.52 0 c-34.29 0 -66.70 0.63 -72.14 1.25 l-9.62 1.46 -0.42 302.35 -0.63 302.35 -46.63 0.63 c-36.17 0.42 -46.84 0 -47.46 -2.09z"/>
  <path d="M224.98 969.97 c2.09 -2.51 15.05 -13.17 28.65 -23.63 13.59 -10.45 32.41 -25.09 42.03 -32.62 15.47 -11.92 63.77 -49.35 130.68 -101.41 27.81 -21.33 51.44 -39.73 106.43 -82.59 l44.33 -34.50 0 -116.25 c0 -90.54 0.63 -116.88 2.72 -118.35 4.39 -3.76 15.89 -4.81 53.74 -5.02 l36.59 -0.21 1.05 119.81 1.05 119.81 31.36 24.67 c17.35 13.59 80.50 63.56 140.72 111.03 l109.15 86.15 -0.42 28.23 -0.63 28.23 -37.85 0.63 -38.05 0.42 -59.17 -46.63 c-32.62 -25.72 -88.65 -69.84 -124.62 -98.27 -35.96 -28.44 -66.28 -51.65 -67.33 -51.65 -1.25 0 -28.23 20.49 -60.01 45.58 -31.78 24.88 -62.52 49.14 -68.58 53.53 -23.21 17.77 -84.89 65.65 -104.34 81.13 l-20.49 16.31 -75.48 0 -75.48 0 3.97 -4.39z"/>
  <path d="M906.62 715.72 l-45.16 -34.71 0 -112.70 0 -112.49 46 0 46 0 0 147.41 c0 81.13 -0.42 147.41 -0.84 147.41 -0.21 0 -20.91 -15.68 -46 -34.92z"/>
 </g>
 <g fill="#010101">
  <path d="M891.15 1442.31 l0.63 -67.54 61.68 0.21 61.68 0 0.63 67.33 0.42 67.33 -6.27 0 c-4.81 0 -6.27 -0.84 -6.27 -4.18 0 -3.97 -1.46 -4.18 -49.97 -4.18 -48.09 0 -49.97 0.21 -51.02 4.18 -0.63 2.93 -2.93 4.18 -6.48 4.18 l-5.44 0 0.42 -67.33z m112.49 -3.76 l0 -52.27 -50.18 0 -50.18 0 0 52.27 0 52.27 50.18 0 50.18 0 0 -52.27z"/>
  <path d="M947.18 1462.59 c0 -10.87 -0.63 -19.86 -1.46 -19.86 -0.63 0 -7.74 6.90 -15.26 15.26 l-14.22 15.05 -4.39 -3.97 -4.60 -4.18 10.66 -9.20 c10.45 -9.20 25.09 -26.55 25.09 -29.90 0 -0.84 -6.27 -1.88 -14.01 -2.30 -12.55 -0.63 -14.22 -1.05 -14.22 -4.81 0 -3.76 1.67 -4.18 16.31 -4.81 l16.10 -0.63 0 -9.20 c0 -9.20 0.21 -9.41 6.48 -9.41 l6.48 0 -1.25 9.41 -1.46 9.41 17.77 0 c17.77 0 17.98 0 17.98 5.23 0 5.23 -0.21 5.23 -16.73 5.23 -12.13 0 -16.73 0.84 -16.73 2.72 0.21 1.25 5.85 6.69 12.55 11.71 6.90 5.23 15.47 12.34 19.24 16.31 6.48 6.69 6.48 6.90 2.72 11.08 -3.97 4.39 -3.97 4.39 -18.82 -10.45 -8.15 -7.95 -15.47 -14.64 -16.52 -14.64 -1.05 0 -1.05 9.41 -0.21 20.91 l1.46 20.91 -6.48 0 -6.48 0 0 -19.86z"/>
  <path d="M1156.27 1506.50 c-3.55 -4.18 -1.46 -6.27 11.50 -12.34 7.53 -3.35 12.75 -7.53 15.68 -12.13 5.85 -9.62 5.23 -11.71 -3.55 -12.55 l-7.95 -0.63 -0.63 -22.37 -0.63 -22.58 36.38 0 36.17 0 -0.42 22.58 -0.42 22.37 -8.57 0.63 -8.57 0.63 0 13.59 0 13.38 10.25 0 c10.66 0 12.75 -1.88 12.75 -10.87 0 -2.93 1.25 -3.97 4.81 -3.35 3.97 0.63 4.60 1.88 4.39 8.57 -0.42 12.55 -5.23 16.10 -21.95 16.10 -18.82 0 -20.70 -1.88 -20.70 -22.16 l0 -15.47 -8.36 0 c-7.11 0 -8.36 0.63 -8.36 4.18 0 10.25 -11.29 23.42 -26.55 31.15 -10.45 5.23 -11.92 5.44 -15.26 1.25z m75.27 -50.18 l0 -5.23 -24.05 0 -24.05 0 0 5.23 0 5.23 24.05 0 24.05 0 0 -5.23z m0 -18.82 l0 -5.23 -24.05 0 c-21.95 0 -24.05 0.42 -24.05 3.76 0 2.09 0.63 4.60 1.46 5.23 0.63 0.84 11.50 1.46 24.05 1.46 l22.58 0 0 -5.23z"/>
  <path d="M1409.90 1507.13 c-5.02 -6.48 -4.39 -7.53 7.53 -11.92 15.89 -5.65 40.98 -22.16 50.81 -33.25 8.36 -9.41 11.29 -10.45 17.15 -6.06 3.35 2.51 2.51 3.76 -8.57 14.43 -14.22 13.38 -31.15 24.67 -49.97 33.25 -15.47 7.11 -14.43 6.90 -16.94 3.55z"/>
  <path d="M1650.35 1506.08 c-4.60 -3.14 -4.81 -3.35 -0.84 -8.78 10.87 -15.26 14.85 -38.05 14.85 -85.94 l0 -30.53 12.96 -2.72 c7.11 -1.46 17.35 -4.39 23 -6.48 9.20 -3.55 10.04 -3.55 12.96 -0.21 1.88 2.09 3.35 4.81 3.35 6.06 0 1.25 -9.41 4.39 -20.91 6.90 l-20.91 4.81 0 14.22 0 14.22 24.05 0 24.05 0 0 5.23 c0 4.81 -0.84 5.23 -8.36 5.23 l-8.36 0 0 39.73 0 39.73 -5.23 0 -5.23 0 0 -39.73 0 -39.73 -10.45 0 -10.45 0 0 12.13 c-0.21 26.55 -7.11 53.32 -16.94 65.65 -2.72 3.14 -3.35 3.14 -7.53 0.21z"/>
  <path d="M1887.05 1503.36 c-2.09 -6.90 0.63 -8.36 15.68 -8.36 12.96 0 14.85 -0.63 18.61 -5.44 4.39 -5.65 7.32 -18.19 9.62 -39.94 l1.25 -13.17 -47.46 0 c-40.56 0 -47.05 -0.42 -46.21 -3.14 1.25 -3.14 8.78 -42.03 10.87 -55.83 1.05 -7.11 1.88 -7.95 7.53 -7.95 6.27 0 6.48 0.21 5.65 10.04 l-0.63 9.83 41.40 -0.84 41.19 -0.63 0 6.48 0 6.48 -42.65 0 c-23.63 0 -43.28 0.63 -43.70 1.67 -0.63 0.84 -1.67 6.48 -2.51 12.55 l-1.46 10.87 45.16 0 45.16 0 0 7.95 c-0.21 13.59 -5.85 51.85 -8.99 59.38 -4.18 10.04 -14.01 14.22 -32.41 14.22 -12.96 0 -14.85 -0.63 -16.10 -4.18z"/>
  <path d="M423.20 1503.57 c-0.42 -0.42 -0.84 -3.14 -0.84 -5.85 0 -4.39 0.84 -4.81 10.45 -4.81 l10.25 0 0.63 -28.65 0.63 -28.85 5.85 -0.63 5.65 -0.63 0 29.27 0 29.48 13.59 0 13.59 0 0 -41.82 0 -41.82 6.27 0 6.27 0 0 17.77 0 17.77 20.91 0 20.91 0 0 5.23 0 5.23 -20.91 0 -20.91 0 0 18.82 0 18.61 28.85 0.63 c28.44 0.63 28.65 0.63 28.65 5.44 l0 5.02 -64.40 0.21 c-35.55 0.21 -65.03 0 -65.45 -0.42z"/>
  <path d="M2054.11 1502.32 c-2.93 -7.32 -0.21 -7.95 30.11 -7.53 l29.69 0.42 0 -6.27 0 -6.27 -23.42 -0.63 c-21.95 -0.63 -23.63 -0.84 -23.63 -4.81 0 -3.97 1.67 -4.18 23.63 -4.81 23.42 -0.63 23.42 -0.63 23.42 -5.65 0 -5.23 0 -5.23 -21.95 -5.23 l-21.95 0 0 -24.05 0 -24.05 21.95 0 c20.49 0 21.95 -0.21 21.95 -4.18 0 -3.97 -1.46 -4.18 -30.32 -4.18 l-30.32 0 0 -5.23 0 -5.23 30.32 0 30.32 0 0 -5.44 0 -5.65 -23 1.05 c-12.55 0.63 -23 0.42 -23 -0.42 0 -1.05 -0.42 -3.14 -1.05 -4.81 -1.05 -2.30 3.97 -3.14 28.65 -4.39 28.02 -1.25 44.54 -2.93 62.52 -6.48 6.48 -1.25 7.53 -0.84 9.83 3.97 2.93 6.48 2.09 6.69 -22.58 8.78 -9.83 0.63 -18.40 1.67 -19.03 2.09 -0.84 0.42 -0.84 3.14 -0.21 6.06 l0.84 5.23 30.11 0 30.11 0 0 5.23 0 5.23 -30.32 0 c-28.85 0 -30.32 0.21 -30.32 4.18 0 3.97 1.46 4.18 23 4.18 l23.21 0 -0.63 23.63 -0.63 23.42 -23 1.05 c-21.33 1.05 -23 1.46 -23 5.23 0 3.97 1.67 4.18 26.76 4.81 26.35 0.63 26.76 0.63 26.14 5.23 -0.63 4.39 -1.46 4.60 -25.72 4.60 l-25.09 0 0 6.27 0 6.27 30.95 0.63 c30.74 0.63 30.95 0.63 30.32 5.23 l-0.63 4.60 -66.49 0.63 c-57.08 0.42 -66.49 0 -67.54 -2.72z m59.38 -54.78 c-0.63 -5.65 -1.05 -5.85 -15.89 -6.48 -12.13 -0.42 -15.26 0 -16.31 2.72 -2.93 7.53 0.63 9.41 16.94 9.41 l15.89 0 -0.63 -5.65z m46 0 c-0.63 -5.85 -0.84 -5.85 -16.73 -6.48 l-16.31 -0.63 0 6.48 0 6.27 16.94 0 16.73 0 -0.63 -5.65z m-45.58 -19.45 l0 -6.27 -15.68 0 -15.68 0 0 6.27 0 6.27 15.68 0 15.68 0 0 -6.27z m36.80 4.18 c8.36 0 9.20 -0.42 9.20 -5.23 0 -5.44 0 -5.44 -17.15 -4.81 -15.05 0.63 -17.35 1.25 -17.98 4.60 -1.05 5.23 3.35 7.95 10.87 6.48 3.35 -0.63 10.04 -1.05 15.05 -1.05z"/>
  <path d="M2332.83 1503.99 c-0.84 -0.63 -1.46 -2.93 -1.46 -5.02 0 -2.72 1.88 -3.97 7.95 -4.39 l7.74 -0.63 0.63 -58.96 0.42 -59.17 30.32 0 30.32 0 0.42 59.17 0.63 58.96 6.90 0.63 c5.44 0.63 6.69 1.46 6.69 5.85 l0 5.02 -44.54 0 c-24.67 0 -45.37 -0.63 -46 -1.46z m62.94 -25.30 l0.63 -15.05 -19.03 0 -18.82 0 0 14.43 c0 7.95 1.05 14.85 2.09 15.26 1.25 0.42 9.41 0.63 18.40 0.63 l16.10 -0.21 0.63 -15.05z m0.42 -39.10 l0 -13.59 -18.82 0 -18.82 0 0 13.59 0 13.59 18.82 0 18.82 0 0 -13.59z m1.05 -38.68 l0 -13.59 -19.24 -0.63 -19.45 -0.63 0 13.38 c0 7.32 0.63 14.01 1.46 14.85 0.84 0.84 9.62 1.05 19.45 0.84 l17.77 -0.63 0 -13.59z"/>
  <path d="M1371.43 1500.02 c-2.09 -2.72 -2.09 -4.18 0.84 -9.20 2.93 -4.81 3.55 -11.50 3.55 -35.34 l0 -29.48 -11.50 0 c-11.29 0 -11.50 0 -11.50 -6.27 l0 -6.27 13.38 0 c21.33 0 20.07 -1.88 20.07 33.25 0 16.94 0.63 31.57 1.25 32.20 0.84 0.84 4.18 -0.63 7.53 -2.93 6.27 -4.60 12.13 -4.18 12.13 1.05 0 1.67 -3.55 5.65 -7.74 8.99 -4.39 3.14 -11.08 8.36 -14.85 11.50 -7.95 6.69 -9.41 7.11 -13.17 2.51z"/>
  <path d="M652.36 1495 l0 -6.27 21.95 0 21.95 0 0 -59.59 0 -59.59 6.27 0 6.27 0 0 59.59 0 59.59 11.50 0 11.50 0 0 -59.59 0 -59.59 6.27 0 6.27 0 0 59.59 0 59.59 21.95 0 21.95 0 0 6.27 0 6.27 -67.95 0 -67.95 0 0 -6.27z"/>
  <path d="M2285.36 1495.21 c0 -1.05 -0.63 -3.35 -1.25 -5.02 -0.84 -2.30 4.39 -4.60 22.58 -9.62 28.44 -7.74 31.57 -7.95 30.53 -2.09 -0.42 3.55 -4.81 5.65 -22.58 11.50 -22.79 7.32 -29.27 8.57 -29.27 5.23z"/>
  <path d="M1589.51 1433.95 l0.63 -59.17 5.23 0 5.23 0 0.63 53.95 0.42 53.74 24.25 0 c23.84 0 24.05 0 23.42 4.81 -0.63 4.39 -1.25 4.60 -30.53 5.23 l-29.69 0.63 0.42 -59.17z"/>
  <path d="M1117.80 1481.20 c-1.67 -6.69 -0.63 -7.95 9.83 -11.29 l7.74 -2.51 0 -25.93 0 -25.93 -8.36 0 c-7.95 0 -8.36 -0.42 -8.36 -6.27 0 -5.85 0.42 -6.06 7.95 -5.65 l7.74 0.42 0.63 -17.15 c0.63 -17.35 0.63 -17.35 6.27 -17.35 l5.65 0 -0.63 16.73 -0.84 16.73 7.53 0 c6.90 0 7.53 0.42 7.53 6.27 0 5.85 -0.63 6.27 -7.32 6.27 l-7.32 0 0 23.21 0 23.21 5.02 -1.25 c2.72 -0.63 6.48 -1.88 8.36 -2.51 2.51 -1.05 3.35 0 3.35 4.60 0 5.65 -1.46 6.69 -20.28 14.43 -11.08 4.60 -20.91 8.57 -21.75 8.99 -0.84 0.42 -2.09 -1.88 -2.72 -5.02z"/>
  <path d="M1626.73 1463.64 c0 -16.31 -2.72 -19.03 -8.99 -8.36 -4.81 8.15 -11.50 11.92 -13.17 7.53 -0.63 -1.88 3.14 -9.83 9.41 -19.24 5.85 -8.57 10.66 -16.73 10.66 -17.77 0 -1.05 -4.18 -1.88 -9.41 -1.88 -8.57 0 -9.41 -0.42 -9.41 -5.23 0 -4.81 0.63 -5.23 10.45 -5.23 l10.45 0 0 -23 0 -23 5.23 0 5.23 0 0 22.79 0 23 10.04 0.63 c8.36 0.63 9.83 1.25 10.45 5.44 0.63 4.18 -0.21 4.60 -8.57 4.60 -5.02 0 -9.83 0.63 -10.66 1.46 -0.63 0.84 3.55 6.48 9.62 12.55 10.45 10.45 10.66 11.29 7.32 14.64 -3.55 3.55 -3.97 3.35 -8.99 -3.14 -2.93 -3.55 -6.27 -6.69 -7.32 -6.69 -1.05 0 -1.88 7.95 -1.88 17.77 0 17.56 0 17.77 -5.23 17.77 -5.02 0 -5.23 -0.42 -5.23 -14.64z"/>
  <path d="M1413.87 1473.67 c-4.39 -4.39 -2.72 -6.69 9.41 -13.17 6.69 -3.35 17.77 -11.50 24.67 -17.98 11.92 -11.29 12.96 -11.71 17.77 -9.20 l5.23 2.72 -10.25 9.83 c-9.20 8.99 -39.52 30.32 -42.86 30.32 -0.84 0 -2.51 -1.05 -3.97 -2.51z"/>
  <path d="M1819.09 1463.64 l0 -6.27 16.31 0 c8.78 0 29.48 0.63 46 1.46 29.27 1.25 29.69 1.25 29.69 6.27 l0 4.81 -46 0 -46 0 0 -6.27z"/>
  <path d="M2286.41 1461.75 c-1.05 -3.14 1.88 -7.11 12.55 -17.77 18.19 -18.19 17.77 -20.07 -2.72 -16.10 -8.57 1.67 -9.20 1.46 -11.08 -3.35 -1.67 -4.60 -0.84 -6.48 5.44 -13.38 3.97 -4.39 11.08 -15.68 15.68 -24.88 4.60 -9.20 9.20 -16.73 10.25 -16.73 3.76 0 8.57 2.51 8.57 4.39 0 1.05 -5.23 10.66 -11.50 21.12 -6.27 10.45 -11.50 19.86 -11.50 20.91 0 1.67 17.15 0.42 17.98 -1.25 0 0 2.30 -3.35 4.81 -6.90 4.81 -7.11 7.53 -8.15 12.55 -5.02 3.55 2.30 2.30 4.60 -15.26 28.02 -7.53 10.25 -13.80 18.82 -13.80 19.24 0 0.21 6.27 -0.63 13.80 -2.09 11.50 -2.09 14.01 -2.09 14.85 0.21 2.30 6.06 -1.67 8.36 -20.49 11.92 -10.87 2.09 -21.75 4.39 -24.25 4.81 -3.14 0.84 -4.81 0 -5.85 -3.14z"/>
  <path d="M751.68 1460.71 c-3.76 -2.72 -3.76 -3.14 1.05 -12.96 7.95 -16.73 16.73 -38.89 16.73 -41.82 0 -1.67 1.05 -2.93 2.30 -2.93 3.55 0 10.25 4.18 10.25 6.48 0 2.72 -24.46 54.15 -25.51 54.15 -0.42 0 -2.72 -1.25 -4.81 -2.93z"/>
  <path d="M676.41 1456.95 c-0.84 -2.51 -5.23 -14.85 -9.83 -27.39 -4.81 -12.34 -8.15 -22.79 -7.53 -23.42 0.42 -0.63 2.93 -1.25 5.44 -1.46 4.18 -0.63 5.85 2.51 15.47 25.93 5.85 14.85 10.25 27.18 9.83 27.60 -0.42 0.42 -3.35 1.46 -6.48 2.30 -4.60 1.25 -5.65 0.63 -6.90 -3.55z"/>
  <path d="M1411.36 1441.68 c-1.46 -1.88 -2.30 -3.55 -1.88 -3.76 0.42 -0.42 5.02 -3.14 10.25 -6.06 5.23 -3.14 12.75 -8.78 16.52 -12.96 7.32 -7.53 13.38 -9.62 16.10 -5.23 2.51 4.39 -28.23 31.15 -35.75 31.15 -1.46 0 -3.76 -1.46 -5.23 -3.14z"/>
  <path d="M421.32 1428.09 c-2.09 -2.30 -3.35 -4.39 -2.93 -4.81 0.42 -0.21 5.02 -2.72 10.25 -5.44 17.98 -9.62 35.96 -24.25 50.60 -41.82 6.27 -7.32 8.57 -8.78 12.75 -7.74 3.35 0.84 4.81 2.51 4.81 5.85 -0.21 6.27 25.51 27.60 47.05 39.31 16.73 8.78 16.73 8.78 12.96 13.38 -2.09 2.30 -3.97 4.60 -3.97 5.02 -1.67 3.14 -41.19 -23.63 -53.11 -35.96 -5.02 -5.23 -10.25 -9.62 -11.29 -9.62 -1.25 0 -8.36 6.06 -15.89 13.38 -12.96 12.96 -40.35 32.62 -45.16 32.62 -1.25 0 -3.97 -1.88 -6.06 -4.18z"/>
  <path d="M1399.24 1423.49 c-4.39 -4.39 -2.72 -7.32 7.74 -15.05 10.45 -7.74 25.09 -25.09 29.69 -35.34 2.09 -4.60 3.76 -5.65 6.90 -4.81 2.51 0.63 5.23 1.25 6.06 1.25 1.05 0 1.25 1.67 0.42 3.97 -1.67 5.44 14.64 23 31.36 33.87 13.17 8.57 13.38 8.78 10.04 13.59 -1.67 2.72 -3.97 5.02 -4.81 5.02 -3.14 0 -24.05 -17.15 -33.66 -27.81 l-9.83 -10.45 -11.50 12.34 c-15.26 16.52 -29.27 26.55 -32.41 23.42z"/>
  <path d="M1165.05 1410.95 c0.63 -4.18 1.88 -4.81 10.04 -4.81 9.41 0 9.41 0 9.41 -7.32 0 -5.85 0.84 -7.32 4.18 -7.32 2.72 0 4.60 2.09 6.06 6.90 1.67 6.27 2.30 6.69 12.13 6.69 9.62 0 10.25 -0.42 13.59 -7.32 2.72 -5.65 4.60 -7.32 7.95 -6.90 4.39 0.84 4.60 1.67 2.09 9.62 -1.25 4.39 -0.84 4.60 11.29 4.60 12.13 0 12.75 0.21 12.75 5.23 l0 5.23 -45.16 0 -44.95 0 0.63 -4.60z"/>
  <path d="M1611.25 1394.85 c-4.18 -13.17 -4.18 -14.85 0.42 -14.85 2.72 0 4.81 3.14 7.53 10.45 2.09 5.65 3.14 11.29 2.30 12.55 -2.93 4.81 -7.11 1.46 -10.25 -8.15z"/>
  <path d="M1640.74 1403.63 c-1.67 -3.14 8.78 -23.63 12.13 -23.63 4.39 0 3.97 4.60 -1.46 15.68 -4.18 8.57 -8.57 11.71 -10.66 7.95z"/>
  <path d="M1378.12 1389.20 c-12.13 -11.29 -12.75 -12.13 -9.41 -15.68 4.18 -4.60 5.44 -3.97 19.65 9.41 10.66 10.04 10.87 10.25 6.69 14.22 -3.97 3.97 -4.18 3.97 -16.94 -7.95z"/>
  <path d="M1168.82 1384.18 c0 -3.76 1.46 -4.18 16.73 -4.18 l16.73 0 -0.42 -6.69 c-0.63 -5.65 0.21 -7.11 3.97 -7.53 3.55 -0.63 5.02 1.05 6.90 7.11 l2.51 7.74 16.52 -1.25 c16.52 -1.25 16.52 -1.25 16.52 3.76 l0 5.23 -39.73 0 c-38.26 0 -39.73 -0.21 -39.73 -4.18z"/>
  <path d="M2350.18 1003.43 c-8.78 -1.88 -18.82 -12.55 -18.82 -19.86 0 -6.06 8.57 -15.47 14.22 -15.47 6.69 0 14.85 7.95 16.31 15.68 1.67 8.78 5.23 9.20 11.08 1.67 4.39 -5.23 4.39 -7.32 3.97 -74.65 l-0.63 -69.21 -7.32 -1.05 c-5.65 -0.84 -7.53 -2.09 -7.95 -5.65 -0.63 -4.81 -0.63 -4.81 30.74 -4.81 l31.57 0 0 5.02 c0 4.39 -1.25 5.23 -6.69 5.85 l-6.90 0.63 -1.25 60.64 c-1.25 67.75 -1.88 70.67 -16.10 85.31 -12.96 13.59 -28.02 19.24 -42.24 15.89z"/>
  <path d="M1260.19 972.90 c-0.84 -0.63 -1.46 -204.49 -1.46 -452.68 l0 -451.22 7.32 0 7.32 0 0 452.68 0 452.68 -5.85 0 c-3.35 0 -6.69 -0.63 -7.32 -1.46z"/>
  <path d="M1903.35 967.25 c-13.80 -4.39 -23.21 -11.29 -29.48 -21.75 -5.65 -9.83 -5.65 -10.25 -6.69 -56.87 l-1.05 -47.05 -7.32 -1.05 c-6.06 -0.84 -7.32 -1.88 -7.32 -6.06 l0 -5.02 30.74 -0.21 30.95 -0.21 0 5.65 c0 5.02 -0.84 5.65 -7.74 6.27 l-7.95 0.63 0 44.95 c0 41.19 0.42 45.58 4.18 52.06 6.06 10.25 14.01 15.26 25.93 16.52 19.24 1.67 33.45 -8.99 37.64 -28.85 2.51 -11.50 2.72 -70.88 0.42 -79.45 -1.05 -3.97 -3.14 -5.44 -8.57 -6.27 -5.65 -0.84 -7.53 -2.09 -7.95 -5.65 -0.63 -4.81 -0.42 -4.81 23.42 -4.81 l24.25 0 0 5.23 c0 3.97 -1.05 5.23 -4.60 5.23 -10.87 0.21 -11.08 0.84 -12.13 48.51 -1.05 40.56 -1.46 45.37 -5.65 53.11 -12.13 23 -42.86 33.87 -71.09 25.09z"/>
  <path d="M2877.09 958.26 c-5.02 -6.69 -23.21 -30.32 -40.35 -52.27 -16.94 -22.16 -31.78 -40.35 -33.04 -40.35 -1.05 0 -1.88 17.77 -1.88 43.91 0 41.19 0.21 43.91 3.97 46 2.30 1.05 6.69 2.09 9.62 2.09 4.60 0 5.44 0.84 4.81 4.81 -0.63 4.39 -1.46 4.60 -24.05 5.23 l-23.63 0.63 0 -5.23 c0 -3.97 1.25 -5.23 7.11 -6.27 3.97 -0.84 7.74 -2.93 8.36 -4.60 0.63 -1.88 1.25 -26.55 1.25 -55.20 0 -56.04 0 -55.41 -11.50 -56.87 -4.60 -0.42 -6.48 -1.88 -6.90 -5.23 -0.63 -4.81 -0.42 -4.81 20.91 -4.81 l21.54 0 21.12 26.76 c11.50 14.64 27.60 35.34 35.55 46 l14.43 19.45 0.63 -38.26 c0.21 -20.91 0 -39.31 -0.42 -40.77 -0.63 -1.46 -3.35 -2.72 -6.27 -2.72 -7.74 0 -11.71 -2.09 -11.71 -6.48 0 -3.76 1.88 -3.97 24.05 -3.97 l24.05 0 0 5.02 c0 4.39 -1.25 5.23 -6.69 5.85 l-6.90 0.63 -1.05 63.77 -1.05 63.77 -6.27 0.63 c-5.44 0.42 -7.53 -1.05 -15.68 -11.50z"/>
  <path d="M1559.82 963.07 c0 -4.18 1.46 -5.44 7.95 -6.90 l7.74 -1.88 0 -56.25 0 -56.45 -7.74 -0.63 c-6.90 -0.63 -7.95 -1.46 -7.95 -5.85 l0 -5.02 30.32 0 30.32 0 0 5.23 c0 4.60 -0.84 5.23 -7.11 5.23 -6.90 0 -7.32 0.42 -8.57 9.20 -0.84 5.02 -1.05 15.47 -0.63 23.42 l0.84 14.43 28.65 0.63 28.85 0.63 -0.63 -23.63 -0.63 -23.63 -7.32 -1.05 c-5.65 -0.84 -7.53 -2.09 -7.95 -5.65 -0.63 -4.81 -0.42 -4.81 26.55 -5.23 15.05 -0.21 29.06 -0.42 31.15 -0.42 2.51 -0.21 3.55 1.46 3.55 5.02 0 4.39 -1.25 5.44 -7.32 6.27 l-7.32 1.05 -0.63 56.04 c-0.42 43.70 0 56.04 2.09 56.66 1.46 0.63 5.23 1.46 8.57 2.09 4.18 1.05 5.65 2.51 5.65 6.48 l0 5.23 -31.36 0 -31.36 0 0 -5.02 c0 -3.97 1.46 -5.23 7.11 -6.27 3.97 -0.84 7.74 -2.93 8.36 -4.60 0.63 -1.88 1.25 -14.01 1.25 -27.18 l0 -23.84 -28.23 0 -28.23 0 0 27.18 0 26.97 7.32 1.46 c5.85 1.05 7.32 2.30 7.32 6.27 l0 5.02 -30.32 0 -30.32 0 0 -5.02z"/>
  <path d="M2139 963.28 c0 -3.97 1.67 -5.23 7.95 -6.90 l7.74 -1.88 0 -56.45 0 -56.45 -7.32 -1.05 c-5.65 -0.84 -7.53 -2.09 -7.95 -5.65 -0.63 -4.81 -0.42 -4.81 25.09 -4.81 14.22 0 27.81 -0.63 30.53 -1.25 3.97 -1.25 4.60 -0.63 4.60 5.02 0 5.65 -0.84 6.48 -6.69 7.11 l-6.90 0.63 -0.63 54.36 c-0.42 53.32 -0.42 54.36 3.97 58.13 2.51 1.88 6.27 3.55 8.36 3.55 2.93 0 3.97 1.46 3.97 5.23 l0 5.23 -31.36 0 -31.36 0 0 -4.81z"/>
  <path d="M2567.64 963.28 c0 -3.97 1.67 -5.23 7.95 -6.90 l7.74 -1.88 0 -56.45 0 -56.45 -7.32 -1.05 c-5.65 -0.84 -7.53 -2.09 -7.95 -5.65 -0.63 -4.81 -0.63 -4.81 30.74 -4.81 l31.57 0 0 5.23 c0 4.39 -1.05 5.23 -6.27 5.23 -3.97 0 -6.90 1.46 -8.36 3.97 -2.30 4.39 -3.14 101.83 -0.84 107.68 0.63 1.67 4.39 3.76 8.36 4.60 5.65 1.05 7.11 2.30 7.11 6.27 l0 5.02 -31.36 0 -31.36 0 0 -4.81z"/>
  <path d="M1653.07 679.13 c-1.67 -2.51 -2.72 -5.23 -2.09 -6.06 0.42 -0.84 11.92 -7.32 25.30 -14.43 63.77 -33.45 108.73 -70.88 136.95 -113.75 27.81 -42.24 42.86 -82.17 50.81 -135.07 4.39 -28.65 7.74 -104.34 6.90 -150.55 l-0.63 -36.59 8.36 0.63 c19.45 1.46 71.30 11.08 78.20 14.43 10.25 5.02 10.66 10.87 1.46 21.12 l-7.53 8.15 0 24.67 c0 27.81 4.18 59.17 11.71 89.91 4.81 19.65 14.85 52.06 17.15 56.25 2.09 3.55 26.76 -38.26 48.93 -83.01 12.55 -25.09 24.05 -46 25.93 -46.84 6.06 -2.30 70.25 34.92 80.92 47.05 7.53 8.36 2.51 14.22 -16.31 19.03 -9.83 2.51 -27.39 13.17 -73.60 44.33 -18.19 12.34 -38.47 25.30 -44.95 29.06 -6.69 3.55 -12.13 7.74 -12.13 8.78 0 4.39 24.46 42.86 36.17 57.08 28.85 34.71 80.50 71.51 124.83 88.86 18.40 7.32 17.98 11.29 -1.88 20.07 -17.77 7.95 -33.04 20.70 -42.03 34.92 -14.64 23.21 -11.29 22.16 -30.32 9.62 -19.65 -12.96 -55.41 -47.88 -66.70 -65.24 -34.71 -53.11 -55.83 -118.35 -64.19 -199.47 -3.14 -29.90 -6.90 -34.08 -8.78 -10.04 -4.39 51.23 -28.85 119.81 -55.83 157.03 -35.13 48.30 -87.40 85.31 -161.42 114.58 -19.24 7.53 -57.50 20.07 -61.47 20.07 -0.21 0 -2.09 -2.09 -3.76 -4.60z"/>
  <path d="M2331.36 653.41 c-2.30 -5.44 -4.18 -10.66 -4.18 -11.71 0 -1.05 47.46 -1.88 117.09 -1.88 l117.09 0 0 -92 0 -92 -85.31 0 -85.31 0 -4.39 -10.25 c-2.30 -5.85 -3.76 -11.08 -3.14 -11.71 0.63 -0.63 32.83 -0.63 71.51 0.21 38.47 0.84 78.20 0.63 88.45 -0.21 l18.19 -1.46 0 -45.58 0 -45.37 -10.87 -1.46 c-6.06 -0.84 -28.65 -1.25 -50.18 -1.05 -21.75 0.21 -39.73 0 -39.94 -0.42 -1.88 -2.30 -7.74 -16.31 -7.74 -18.40 0 -1.67 30.11 -2.30 105.38 -2.30 l105.38 0 17.35 -19.86 c9.41 -10.87 17.77 -19.86 18.61 -19.86 2.09 0 32.41 21.95 44.54 32.20 13.59 11.29 16.94 17.77 12.75 24.05 -3.14 4.18 -4.39 4.39 -53.74 4.39 -27.81 0 -51.44 0.84 -52.69 1.67 -1.05 0.84 -3.76 4.60 -5.65 8.36 -3.14 6.06 -3.76 12.96 -3.76 45.16 l0 38.26 9.62 1.46 c5.44 0.63 28.44 1.25 51.23 1.25 l41.61 0 5.02 -5.65 c26.14 -30.53 35.34 -40.35 37.43 -40.35 3.76 0.21 40.35 26.76 54.15 39.52 12.75 11.71 16.52 19.03 12.13 24.25 -2.30 2.72 -17.15 3.14 -106.85 3.14 l-104.34 0 0 92 0 92 70.67 0 70.67 0 7.32 -9.83 c12.55 -16.94 37.85 -42.65 40.56 -41.61 1.46 0.42 13.80 9.41 27.60 19.65 37.22 28.23 52.90 46.42 44.33 51.85 -1.46 0.84 -129.43 1.88 -284.57 2.30 l-281.85 0.84 -4.18 -9.62z"/>
  <path d="M2664.65 632.71 c-0.63 -1.67 2.93 -10.66 7.74 -20.28 10.87 -21.75 24.46 -56.66 33.04 -85.52 13.80 -45.16 14.85 -48.09 19.24 -48.09 10.66 0 72.97 26.76 78.83 34.08 4.81 5.65 2.09 10.25 -12.13 19.86 -7.53 5.02 -27.60 23 -44.95 39.94 -17.15 16.94 -39.31 37.01 -49.14 44.54 -24.46 18.82 -30.32 21.54 -32.62 15.47z"/>
  <path d="M1558.15 628.95 c-3.97 -3.97 -2.93 -6.90 6.90 -19.03 17.77 -21.95 44.12 -63.35 60.01 -94.51 39.31 -77.36 65.86 -165.39 81.13 -270.35 2.30 -15.26 4.18 -30.74 4.18 -34.08 l0 -6.27 -65.24 0.63 c-35.96 0.42 -66.91 1.46 -68.79 2.30 -2.72 1.46 -4.39 -0.84 -8.78 -11.50 l-5.23 -13.17 75.90 -0.63 75.69 -0.42 2.51 -25.93 c1.46 -14.22 3.35 -39.94 4.18 -57.29 0.63 -17.35 2.09 -32.20 2.93 -33.04 2.72 -2.93 78.41 12.13 94.09 18.82 6.48 2.51 7.74 4.18 7.74 9.41 0 4.18 -1.88 7.74 -6.48 11.50 -3.55 2.93 -7.11 5.44 -7.74 5.44 -5.23 0.21 -7.11 6.27 -10.87 35.75 -2.30 17.77 -4.18 32.83 -4.18 33.87 0 0.84 51.65 1.46 115 1.46 l115 0 7.95 -8.78 c4.60 -5.02 14.64 -16.52 22.37 -25.72 7.74 -9.20 15.26 -16.94 16.94 -17.35 6.27 -1.46 69.21 46.63 77.36 59.38 2.93 4.18 3.14 6.27 1.25 10.25 l-2.51 5.23 -179.19 0.42 -179.19 0.63 -5.65 33.45 c-17.15 99.95 -52.69 195.50 -97.65 263.45 -24.46 36.80 -76.11 92 -109.98 117.72 -15.89 11.92 -16.10 11.92 -19.65 8.36z"/>
  <path d="M2476.68 620.16 c-7.74 -3.55 -16.73 -12.96 -19.65 -20.70 -1.25 -3.35 -2.30 -13.17 -2.30 -21.95 0 -29.48 -10.25 -61.89 -27.39 -86.15 -13.17 -18.61 -7.11 -21.75 18.40 -9.62 34.92 16.73 65.86 43.07 76.95 65.45 6.90 14.01 9.20 33.66 5.23 45.58 -7.32 21.95 -32.83 35.55 -51.23 27.39z"/>
  <path d="M1765.56 487.18 c-18.61 -3.97 -30.11 -19.24 -30.11 -39.94 0 -14.22 5.23 -23.21 17.15 -29.27 4.81 -2.51 14.64 -10.25 21.75 -17.35 14.22 -14.22 26.97 -38.05 33.45 -61.89 4.81 -18.19 6.48 -20.91 12.34 -20.91 9.41 0 10.45 5.65 10.45 54.36 0 48.72 -1.88 60.43 -12.96 82.59 -6.27 12.96 -11.71 18.82 -23.21 25.51 -10.87 6.48 -20.28 8.57 -28.85 6.90z"/>
  <path d="M2312.96 386.40 c-4.60 -4.60 -2.72 -7.53 14.85 -21.75 30.11 -24.88 49.14 -42.86 75.27 -71.51 63.15 -69.21 108.94 -134.86 144.06 -206.37 5.65 -11.50 10.87 -21.54 11.92 -22.58 0.84 -0.84 14.22 1.88 29.69 5.85 59.80 15.89 75.06 22.16 75.06 30.32 0 4.39 -14.85 16.73 -20.28 16.73 -6.27 0 -1.46 6.69 20.91 28.44 27.81 27.39 54.57 48.93 86.15 69.84 45.16 29.69 77.78 43.28 152.64 63.15 8.99 2.51 10.45 3.55 11.08 8.36 0.63 5.02 -0.84 6.48 -11.71 11.92 -19.86 10.04 -34.92 28.85 -43.07 54.15 -2.09 5.85 -4.60 10.87 -5.65 10.87 -7.95 0 -66.28 -34.71 -89.28 -53.11 -44.75 -35.75 -97.44 -101.62 -126.50 -158.07 -5.65 -10.87 -10.87 -19.86 -11.71 -19.86 -0.84 0 -7.95 7.95 -15.89 17.77 -34.08 42.65 -89.70 100.57 -127.13 132.56 -39.73 34.08 -85.94 65.03 -136.33 91.37 -26.97 14.01 -30.74 15.26 -34.08 11.92z"/>
 </g>
</svg>