<?xml version="1.0"?>
<svg width="2882.9999999999995" height="1352" xmlns="http://www.w3.org/2000/svg" xmlns:svg="http://www.w3.org/2000/svg" preserveAspectRatio="xMidYMid meet" version="1.0">
 <title>定稿 logo</title>
 <g class="layer" display="inline">
  <title>Layer 1</title>
  <path d="m231.98,1177.01l0,-74.44l6.27,0l6.27,0l-0.42,73.81l-0.63,73.6l-5.65,0.63l-5.85,0.63l0,-74.23l0.01,0z" fill="#ffffff" id="svg_4"/>
  <path d="m2656.82,1177.43l0.63,-73.81l4.81,-0.63l4.6,-0.63l0,74.23l0,74.44l-5.23,0l-5.23,0l0.42,-73.6z" fill="#ffffff" id="svg_5"/>
  <path d="m1.05,907.81c-0.63,-1.46 -0.84,-159.33 -0.63,-350.85l0.63,-348.14l119.18,-1.05l119.18,-1.05l0,-53.32l0,-53.32l-119.18,-1.05l-119.18,-1.05l-0.63,-46.42l-0.42,-46.63l461.05,0l461.05,0l-0.42,47.46l-0.63,47.67l-294.19,0.63l-294.4,0.42l0,52.06l0,52.06l6.48,1.25c3.55,0.63 136.33,1.25 294.82,1.25l288.34,0l0,47.05l0,47.05l-285.83,0.21c-157.45,0 -289.8,0.63 -294.4,1.46l-8.36,1.46l-0.63,157.24l-0.42,157.03l-14.22,11.08c-7.74,6.27 -28.02,21.95 -45.37,34.92l-31.36,23.63l-0.63,-193.41l-0.42,-193.62l-62.52,0c-34.29,0 -66.7,0.63 -72.14,1.25l-9.62,1.46l-0.42,302.35l-0.63,302.35l-46.63,0.63c-36.17,0.42 -46.84,0 -47.46,-2.09l0.01,0.03z" fill="#ffffff" id="svg_6"/>
  <path d="m193.62,905.93c2.09,-2.51 15.05,-13.17 28.65,-23.63c13.59,-10.45 32.41,-25.09 42.03,-32.62c15.47,-11.92 63.77,-49.35 130.68,-101.41c27.81,-21.33 51.44,-39.73 106.43,-82.59l44.33,-34.5l0,-116.25c0,-90.54 0.63,-116.88 2.72,-118.35c4.39,-3.76 15.89,-4.81 53.74,-5.02l36.59,-0.21l1.05,119.81l1.05,119.81l31.36,24.67c17.35,13.59 80.5,63.56 140.72,111.03l109.15,86.15l-0.42,28.23l-0.63,28.23l-37.85,0.63l-38.05,0.42l-59.17,-46.63c-32.62,-25.72 -88.65,-69.84 -124.62,-98.27c-35.96,-28.44 -66.28,-51.65 -67.33,-51.65c-1.25,0 -28.23,20.49 -60.01,45.58c-31.78,24.88 -62.52,49.14 -68.58,53.53c-23.21,17.77 -84.89,65.65 -104.34,81.13l-20.49,16.31l-75.48,0l-75.48,0l3.97,-4.39l-0.02,-0.01z" fill="#ffffff" id="svg_7"/>
  <path d="m875.26,651.68l-45.16,-34.71l0,-112.7l0,-112.49l46,0l46,0l0,147.41c0,81.13 -0.42,147.41 -0.84,147.41c-0.21,0 -20.91,-15.68 -46,-34.92z" fill="#ffffff" id="svg_8"/>
  <path d="m2318.82,939.39c-8.78,-1.88 -18.82,-12.55 -18.82,-19.86c0,-6.06 8.57,-15.47 14.22,-15.47c6.69,0 14.85,7.95 16.31,15.68c1.67,8.78 5.23,9.2 11.08,1.67c4.39,-5.23 4.39,-7.32 3.97,-74.65l-0.63,-69.21l-7.32,-1.05c-5.65,-0.84 -7.53,-2.09 -7.95,-5.65c-0.63,-4.81 -0.63,-4.81 30.74,-4.81l31.57,0l0,5.02c0,4.39 -1.25,5.23 -6.69,5.85l-6.9,0.63l-1.25,60.64c-1.25,67.75 -1.88,70.67 -16.1,85.31c-12.96,13.59 -28.02,19.24 -42.24,15.89l0.01,0.01z" fill="#ffffff" id="svg_38"/>
  <path d="m1228.83,908.86c-0.84,-0.63 -1.46,-204.49 -1.46,-452.68l0,-451.22l7.32,0l7.32,0l0,452.68l0,452.68l-5.85,0c-3.35,0 -6.69,-0.63 -7.32,-1.46l-0.01,0z" fill="#ffffff" id="svg_39"/>
  <path d="m1871.99,903.21c-13.8,-4.39 -23.21,-11.29 -29.48,-21.75c-5.65,-9.83 -5.65,-10.25 -6.69,-56.87l-1.05,-47.05l-7.32,-1.05c-6.06,-0.84 -7.32,-1.88 -7.32,-6.06l0,-5.02l30.74,-0.21l30.95,-0.21l0,5.65c0,5.02 -0.84,5.65 -7.74,6.27l-7.95,0.63l0,44.95c0,41.19 0.42,45.58 4.18,52.06c6.06,10.25 14.01,15.26 25.93,16.52c19.24,1.67 33.45,-8.99 37.64,-28.85c2.51,-11.5 2.72,-70.88 0.42,-79.45c-1.05,-3.97 -3.14,-5.44 -8.57,-6.27c-5.65,-0.84 -7.53,-2.09 -7.95,-5.65c-0.63,-4.81 -0.42,-4.81 23.42,-4.81l24.25,0l0,5.23c0,3.97 -1.05,5.23 -4.6,5.23c-10.87,0.21 -11.08,0.84 -12.13,48.51c-1.05,40.56 -1.46,45.37 -5.65,53.11c-12.13,23 -42.86,33.87 -71.09,25.09l0.01,0z" fill="#ffffff" id="svg_40"/>
  <path d="m2845.73,894.22c-5.02,-6.69 -23.21,-30.32 -40.35,-52.27c-16.94,-22.16 -31.78,-40.35 -33.04,-40.35c-1.05,0 -1.88,17.77 -1.88,43.91c0,41.19 0.21,43.91 3.97,46c2.3,1.05 6.69,2.09 9.62,2.09c4.6,0 5.44,0.84 4.81,4.81c-0.63,4.39 -1.46,4.6 -24.05,5.23l-23.63,0.63l0,-5.23c0,-3.97 1.25,-5.23 7.11,-6.27c3.97,-0.84 7.74,-2.93 8.36,-4.6c0.63,-1.88 1.25,-26.55 1.25,-55.2c0,-56.04 0,-55.41 -11.5,-56.87c-4.6,-0.42 -6.48,-1.88 -6.9,-5.23c-0.63,-4.81 -0.42,-4.81 20.91,-4.81l21.54,0l21.12,26.76c11.5,14.64 27.6,35.34 35.55,46l14.43,19.45l0.63,-38.26c0.21,-20.91 0,-39.31 -0.42,-40.77c-0.63,-1.46 -3.35,-2.72 -6.27,-2.72c-7.74,0 -11.71,-2.09 -11.71,-6.48c0,-3.76 1.88,-3.97 24.05,-3.97l24.05,0l0,5.02c0,4.39 -1.25,5.23 -6.69,5.85l-6.9,0.63l-1.05,63.77l-1.05,63.77l-6.27,0.63c-5.44,0.42 -7.53,-1.05 -15.68,-11.5l-0.01,-0.02z" fill="#ffffff" id="svg_41"/>
  <path d="m1528.46,899.03c0,-4.18 1.46,-5.44 7.95,-6.9l7.74,-1.88l0,-56.25l0,-56.45l-7.74,-0.63c-6.9,-0.63 -7.95,-1.46 -7.95,-5.85l0,-5.02l30.32,0l30.32,0l0,5.23c0,4.6 -0.84,5.23 -7.11,5.23c-6.9,0 -7.32,0.42 -8.57,9.2c-0.84,5.02 -1.05,15.47 -0.63,23.42l0.84,14.43l28.65,0.63l28.85,0.63l-0.63,-23.63l-0.63,-23.63l-7.32,-1.05c-5.65,-0.84 -7.53,-2.09 -7.95,-5.65c-0.63,-4.81 -0.42,-4.81 26.55,-5.23c15.05,-0.21 29.06,-0.42 31.15,-0.42c2.51,-0.21 3.55,1.46 3.55,5.02c0,4.39 -1.25,5.44 -7.32,6.27l-7.32,1.05l-0.63,56.04c-0.42,43.7 0,56.04 2.09,56.66c1.46,0.63 5.23,1.46 8.57,2.09c4.18,1.05 5.65,2.51 5.65,6.48l0,5.23l-31.36,0l-31.36,0l0,-5.02c0,-3.97 1.46,-5.23 7.11,-6.27c3.97,-0.84 7.74,-2.93 8.36,-4.6c0.63,-1.88 1.25,-14.01 1.25,-27.18l0,-23.84l-28.23,0l-28.23,0l0,27.18l0,26.97l7.32,1.46c5.85,1.05 7.32,2.3 7.32,6.27l0,5.02l-30.32,0l-30.32,0l0,-5.02l0.03,0.01z" fill="#ffffff" id="svg_42"/>
  <path d="m2107.64,899.24c0,-3.97 1.67,-5.23 7.95,-6.9l7.74,-1.88l0,-56.45l0,-56.45l-7.32,-1.05c-5.65,-0.84 -7.53,-2.09 -7.95,-5.65c-0.63,-4.81 -0.42,-4.81 25.09,-4.81c14.22,0 27.81,-0.63 30.53,-1.25c3.97,-1.25 4.6,-0.63 4.6,5.02c0,5.65 -0.84,6.48 -6.69,7.11l-6.9,0.63l-0.63,54.36c-0.42,53.32 -0.42,54.36 3.97,58.13c2.51,1.88 6.27,3.55 8.36,3.55c2.93,0 3.97,1.46 3.97,5.23l0,5.23l-31.36,0l-31.36,0l0,-4.81l0,-0.01z" fill="#ffffff" id="svg_43"/>
  <path d="m2536.28,899.24c0,-3.97 1.67,-5.23 7.95,-6.9l7.74,-1.88l0,-56.45l0,-56.45l-7.32,-1.05c-5.65,-0.84 -7.53,-2.09 -7.95,-5.65c-0.63,-4.81 -0.63,-4.81 30.74,-4.81l31.57,0l0,5.23c0,4.39 -1.05,5.23 -6.27,5.23c-3.97,0 -6.9,1.46 -8.36,3.97c-2.3,4.39 -3.14,101.83 -0.84,107.68c0.63,1.67 4.39,3.76 8.36,4.6c5.65,1.05 7.11,2.3 7.11,6.27l0,5.02l-31.36,0l-31.36,0l0,-4.81l-0.01,0z" fill="#ffffff" id="svg_44"/>
  <path d="m1621.71,615.09c-1.67,-2.51 -2.72,-5.23 -2.09,-6.06c0.42,-0.84 11.92,-7.32 25.3,-14.43c63.77,-33.45 108.73,-70.88 136.95,-113.75c27.81,-42.24 42.86,-82.17 50.81,-135.07c4.39,-28.65 7.74,-104.34 6.9,-150.55l-0.63,-36.59l8.36,0.63c19.45,1.46 71.3,11.08 78.2,14.43c10.25,5.02 10.66,10.87 1.46,21.12l-7.53,8.15l0,24.67c0,27.81 4.18,59.17 11.71,89.91c4.81,19.65 14.85,52.06 17.15,56.25c2.09,3.55 26.76,-38.26 48.93,-83.01c12.55,-25.09 24.05,-46 25.93,-46.84c6.06,-2.3 70.25,34.92 80.92,47.05c7.53,8.36 2.51,14.22 -16.31,19.03c-9.83,2.51 -27.39,13.17 -73.6,44.33c-18.19,12.34 -38.47,25.3 -44.95,29.06c-6.69,3.55 -12.13,7.74 -12.13,8.78c0,4.39 24.46,42.86 36.17,57.08c28.85,34.71 80.5,71.51 124.83,88.86c18.4,7.32 17.98,11.29 -1.88,20.07c-17.77,7.95 -33.04,20.7 -42.03,34.92c-14.64,23.21 -11.29,22.16 -30.32,9.62c-19.65,-12.96 -55.41,-47.88 -66.7,-65.24c-34.71,-53.11 -55.83,-118.35 -64.19,-199.47c-3.14,-29.9 -6.9,-34.08 -8.78,-10.04c-4.39,51.23 -28.85,119.81 -55.83,157.03c-35.13,48.3 -87.4,85.31 -161.42,114.58c-19.24,7.53 -57.5,20.07 -61.47,20.07c-0.21,0 -2.09,-2.09 -3.76,-4.6l0,0.01z" fill="#ffffff" id="svg_45"/>
  <path d="m2300,589.37c-2.3,-5.44 -4.18,-10.66 -4.18,-11.71c0,-1.05 47.46,-1.88 117.09,-1.88l117.09,0l0,-92l0,-92l-85.31,0l-85.31,0l-4.39,-10.25c-2.3,-5.85 -3.76,-11.08 -3.14,-11.71c0.63,-0.63 32.83,-0.63 71.51,0.21c38.47,0.84 78.2,0.63 88.45,-0.21l18.19,-1.46l0,-45.58l0,-45.37l-10.87,-1.46c-6.06,-0.84 -28.65,-1.25 -50.18,-1.05c-21.75,0.21 -39.73,0 -39.94,-0.42c-1.88,-2.3 -7.74,-16.31 -7.74,-18.4c0,-1.67 30.11,-2.3 105.38,-2.3l105.38,0l17.35,-19.86c9.41,-10.87 17.77,-19.86 18.61,-19.86c2.09,0 32.41,21.95 44.54,32.2c13.59,11.29 16.94,17.77 12.75,24.05c-3.14,4.18 -4.39,4.39 -53.74,4.39c-27.81,0 -51.44,0.84 -52.69,1.67c-1.05,0.84 -3.76,4.6 -5.65,8.36c-3.14,6.06 -3.76,12.96 -3.76,45.16l0,38.26l9.62,1.46c5.44,0.63 28.44,1.25 51.23,1.25l41.61,0l5.02,-5.65c26.14,-30.53 35.34,-40.35 37.43,-40.35c3.76,0.21 40.35,26.76 54.15,39.52c12.75,11.71 16.52,19.03 12.13,24.25c-2.3,2.72 -17.15,3.14 -106.85,3.14l-104.34,0l0,92l0,92l70.67,0l70.67,0l7.32,-9.83c12.55,-16.94 37.85,-42.65 40.56,-41.61c1.46,0.42 13.8,9.41 27.6,19.65c37.22,28.23 52.9,46.42 44.33,51.85c-1.46,0.84 -129.43,1.88 -284.57,2.3l-281.85,0.84l-4.18,-9.62l0.01,0.02z" fill="#ffffff" id="svg_46"/>
  <path d="m2633.29,568.67c-0.63,-1.67 2.93,-10.66 7.74,-20.28c10.87,-21.75 24.46,-56.66 33.04,-85.52c13.8,-45.16 14.85,-48.09 19.24,-48.09c10.66,0 72.97,26.76 78.83,34.08c4.81,5.65 2.09,10.25 -12.13,19.86c-7.53,5.02 -27.6,23 -44.95,39.94c-17.15,16.94 -39.31,37.01 -49.14,44.54c-24.46,18.82 -30.32,21.54 -32.62,15.47l-0.01,0z" fill="#ffffff" id="svg_47"/>
  <path d="m1526.79,564.91c-3.97,-3.97 -2.93,-6.9 6.9,-19.03c17.77,-21.95 44.12,-63.35 60.01,-94.51c39.31,-77.36 65.86,-165.39 81.13,-270.35c2.3,-15.26 4.18,-30.74 4.18,-34.08l0,-6.27l-65.24,0.63c-35.96,0.42 -66.91,1.46 -68.79,2.3c-2.72,1.46 -4.39,-0.84 -8.78,-11.5l-5.23,-13.17l75.9,-0.63l75.69,-0.42l2.51,-25.93c1.46,-14.22 3.35,-39.94 4.18,-57.29c0.63,-17.35 2.09,-32.2 2.93,-33.04c2.72,-2.93 78.41,12.13 94.09,18.82c6.48,2.51 7.74,4.18 7.74,9.41c0,4.18 -1.88,7.74 -6.48,11.5c-3.55,2.93 -7.11,5.44 -7.74,5.44c-5.23,0.21 -7.11,6.27 -10.87,35.75c-2.3,17.77 -4.18,32.83 -4.18,33.87c0,0.84 51.65,1.46 115,1.46l115,0l7.95,-8.78c4.6,-5.02 14.64,-16.52 22.37,-25.72c7.74,-9.2 15.26,-16.94 16.94,-17.35c6.27,-1.46 69.21,46.63 77.36,59.38c2.93,4.18 3.14,6.27 1.25,10.25l-2.51,5.23l-179.19,0.42l-179.19,0.63l-5.65,33.45c-17.15,99.95 -52.69,195.5 -97.65,263.45c-24.46,36.8 -76.11,92 -109.98,117.72c-15.89,11.92 -16.1,11.92 -19.65,8.36z" fill="#ffffff" id="svg_48"/>
  <path d="m2445.32,556.12c-7.74,-3.55 -16.73,-12.96 -19.65,-20.7c-1.25,-3.35 -2.3,-13.17 -2.3,-21.95c0,-29.48 -10.25,-61.89 -27.39,-86.15c-13.17,-18.61 -7.11,-21.75 18.4,-9.62c34.92,16.73 65.86,43.07 76.95,65.45c6.9,14.01 9.2,33.66 5.23,45.58c-7.32,21.95 -32.83,35.55 -51.23,27.39l-0.01,0z" fill="#ffffff" id="svg_49"/>
  <path d="m1734.2,423.14c-18.61,-3.97 -30.11,-19.24 -30.11,-39.94c0,-14.22 5.23,-23.21 17.15,-29.27c4.81,-2.51 14.64,-10.25 21.75,-17.35c14.22,-14.22 26.97,-38.05 33.45,-61.89c4.81,-18.19 6.48,-20.91 12.34,-20.91c9.41,0 10.45,5.65 10.45,54.36c0,48.72 -1.88,60.43 -12.96,82.59c-6.27,12.96 -11.71,18.82 -23.21,25.51c-10.87,6.48 -20.28,8.57 -28.85,6.9l-0.01,0z" fill="#ffffff" id="svg_50"/>
  <path d="m2281.6,322.36c-4.6,-4.6 -2.72,-7.53 14.85,-21.75c30.11,-24.88 49.14,-42.86 75.27,-71.51c63.15,-69.21 108.94,-134.86 144.06,-206.37c5.65,-11.5 10.87,-21.54 11.92,-22.58c0.84,-0.84 14.22,1.88 29.69,5.85c59.8,15.89 75.06,22.16 75.06,30.32c0,4.39 -14.85,16.73 -20.28,16.73c-6.27,0 -1.46,6.69 20.91,28.44c27.81,27.39 54.57,48.93 86.15,69.84c45.16,29.69 77.78,43.28 152.64,63.15c8.99,2.51 10.45,3.55 11.08,8.36c0.63,5.02 -0.84,6.48 -11.71,11.92c-19.86,10.04 -34.92,28.85 -43.07,54.15c-2.09,5.85 -4.6,10.87 -5.65,10.87c-7.95,0 -66.28,-34.71 -89.28,-53.11c-44.75,-35.75 -97.44,-101.62 -126.5,-158.07c-5.65,-10.87 -10.87,-19.86 -11.71,-19.86c-0.84,0 -7.95,7.95 -15.89,17.77c-34.08,42.65 -89.7,100.57 -127.13,132.56c-39.73,34.08 -85.94,65.03 -136.33,91.37c-26.97,14.01 -30.74,15.26 -34.08,11.92z" fill="#ffffff" id="svg_51"/>
  <text fill="#ffffff" font-family="Fantasy" font-size="30" id="svg_1" letter-spacing="0" stroke-width="0" text-anchor="middle" transform="matrix(8.55335 0 0 8.17996 -2185.99 -7725.86)" x="424.45" xml:space="preserve" y="1096.99">企业困境诊断与重组</text>
 </g>
</svg>